<?xml version="1.0" encoding="utf-8"?>
<!-- Generator: Adobe Illustrator 25.0.0, SVG Export Plug-In . SVG Version: 6.00 Build 0)  -->
<svg version="1.1" xmlns="http://www.w3.org/2000/svg" xmlns:xlink="http://www.w3.org/1999/xlink" x="0px" y="0px"
	 viewBox="0 0 521.62 459.57" style="enable-background:new 0 0 521.62 459.57;" xml:space="preserve">
<style type="text/css">
	.st0{display:none;}
	.st1{display:inline;}
	.st2{fill:#73873D;}
	.st3{fill:#616B4A;}
	.st4{fill:#F89845;}
	.st5{fill:#94572A;}
	.st6{fill:#B8707A;}
	.st7{fill:#7F4F57;}
	.st8{display:inline;fill:#F89845;}
	.st9{display:inline;fill:#B8707A;}
	.st10{fill:#F5F8FC;}
	.st11{display:inline;fill:#945C65;}
	.st12{fill:#B56D35;}
	.st13{display:inline;fill:#FDFEFE;stroke:#8DC63F;stroke-miterlimit:10;}
	.st14{fill:#FFFFFF;stroke:#FBB040;stroke-miterlimit:10;}
	.st15{fill:#52352A;}
	.st16{fill:#FFF7DA;}
	.st17{fill:#F5E6C8;}
	.st18{fill:#523824;}
	.st19{fill:#EB3E3F;}
	.st20{fill:#FFFFFF;stroke:#52352A;stroke-miterlimit:10;}
	.st21{fill:#F6C621;}
	.st22{fill:#EDB343;}
	.st23{fill:#B87C2B;}
	.st24{fill:#7B5859;}
	.st25{fill:#F3B442;}
	.st26{fill:none;stroke:#6C3F42;stroke-width:2;stroke-miterlimit:10;}
	.st27{fill:#F7941D;}
	.st28{display:inline;fill:none;stroke:#945C65;stroke-miterlimit:10;}
</style>
<g id="Layer_16" class="st0">
	<g class="st1">
		<path class="st2" d="M142.53,164.51c0,0,0.08,6.89,7.48,28.06c6.35,3.19,37.35,13.03,91.62,13.76
			C241.64,206.33,180.94,197.84,142.53,164.51"/>
		<path class="st3" d="M193.75,153.13c0,0-33.63,9.72-34.12,23.98c-3.98-3.3-20.42-9.75-17.1-12.6
			C145.85,161.65,169.04,150.71,193.75,153.13z"/>
	</g>
	<g class="st1">
		<path class="st2" d="M365.71,147.42c0,0,1.21,6.78-2.1,28.97c-5.65,4.32-34.26,19.79-87.43,30.66
			C276.17,207.05,334.21,187.35,365.71,147.42"/>
		<path class="st3" d="M313.27,145.82c0,0,34.86,3.26,38,17.18c3.29-3.99,18.23-13.39,14.44-15.58
			C361.91,145.24,337.09,138.82,313.27,145.82z"/>
	</g>
	<g class="st1">
		<path class="st4" d="M180.22,372.95c0,0-4.79,1.44,5.69,31.98c1.15,3.27,36.69,44.26,142.36,6.42
			C320.43,411.81,211.09,428.6,180.22,372.95"/>
		<path class="st5" d="M227.98,360c0,0-33.36,10.47-32.53,31.22c-4.22-2.98-18.32-15.16-15.24-18.27
			C183.3,369.84,203.16,359.52,227.98,360z"/>
	</g>
	<g class="st1">
		<path class="st2" d="M130.89,117.89c0,0,0.53,7.32,11.01,37.86c1.15,3.27,61.57,37.64,159.97,8.92
			C294.02,165.12,168.95,166.19,130.89,117.89"/>
		<path class="st3" d="M182.18,97.42c0,0-33.56,16-32.73,36.75c-4.22-2.98-21.3-13.92-18.22-17.02
			C134.32,114.04,137.08,101.35,182.18,97.42z"/>
	</g>
	<g class="st1">
		<path class="st6" d="M171.42,304.19c0,0-4.89,1.06,3.17,32.33c0.89,3.35,50.55,45.75,158.86,16.31
			C325.59,352.67,213.49,356.9,171.42,304.19"/>
		<path class="st7" d="M224,292.12c0,0-34.08,7.82-34.88,28.58c-3.98-3.3-20.44-15.34-17.12-18.19
			C175.32,299.64,199.29,289.7,224,292.12z"/>
	</g>
	<g class="st1">
		<path class="st4" d="M344.25,346.64c0,0,7.38,1.63,3.32,29.95c-0.46,3.04-28.77,44.81-136.68,17.12
			C217.79,392.81,326.6,400.2,344.25,346.64"/>
		<path class="st5" d="M300.53,343.28c0,0,28.31,4.69,31.02,22.89c3.18-3.29,15.9-17.34,12.7-19.53
			C341.05,344.45,322.05,338.75,300.53,343.28z"/>
	</g>
	<g class="st1">
		<path class="st6" d="M178.34,284.44c0,0,87.77,57.41,165.06-5.11c7.2-7.27,9.43-11.91,8.97-16.8
			c-4.25,4.2-49.57,51.97-163.31,19.21C178.34,284.44,178.34,284.44,178.34,284.44z"/>
		<path class="st7" d="M313.81,249.91c0,0,21.69,3.68,33.13,17.58c1.99-1.69,5.44-4.96,5.44-4.96S331.72,245.06,313.81,249.91z"/>
	</g>
	<path class="st8" d="M153.73,113.06c0,0-59.27-19.47-26.76-47.87c12.33-9.61,18.9-8.54,18.9-8.54S106.56,78.65,153.73,113.06z"/>
	<path class="st8" d="M187.73,89.3c0,0-96.4-20.66-63.89-49.07c29.31-22.84,77.03-27.35,77.03-27.35S81.24,38.53,187.73,89.3z"/>
	<path class="st9" d="M291.29,11.11c0,0,76.71,9.66,79.19,44.9s-83.07,41.62-132.1,41.18c23.39,6.24,147.15,23.38,155.45-35.43
		C400.24,16.32,291.29,11.11,291.29,11.11z"/>
	<path class="st9" d="M323.94,34.22c0,0,23.59,20.3,8.3,31.31c-15.29,11.01-64.97,12.6-64.97,12.6s74.11,12.72,90.16-18.64
		C361.24,47.59,323.94,34.22,323.94,34.22z"/>
	<g id="Layer_1" class="st1">
		<path class="st6" d="M281.79,35.09c0,0-0.8,12.46-12.21,13.82c-11.41,1.36-30.99-0.17-27.56-8.66s42.04-121.37,42.04-121.37
			L233.51,30.64c0,0-14.78,4.49-6.72,15.27s28.38,14.78,54.16,7.28C299.72,46.07,281.79,35.09,281.79,35.09z"/>
		<path class="st6" d="M282.14-1.54l41.34-70.62c0,0,17.47,3.14,13.33-13.93c-2.51-5.68-24.83-24.4-37.08-22.97
			c-12.25,1.44-3.15,14.52,1.51,19.14c-0.46-2.12-7.35-25.91,14.88-9.57s14.44,27.78-6.2,13.39c2.2,3.88,4.88,9.96,4.88,9.96
			L282.14-1.54z"/>
		<path class="st6" d="M302.32-109.3c0,0-2.9-8.73,3.58-11.03c8.7-8.63,40.29,24.07,39,30.53c0,0,1.11,8.76-9.07,3.81
			S308.35-109.15,302.32-109.3z"/>
		<path class="st10" d="M307.99-117.01c0,0,2.81,5.93,8.25,11.33c5.44,5.4,27.9,21.23,24.47,13.18S308.21-122.1,307.99-117.01z"/>
		<path class="st6" d="M313.83-119.18c0,0-2.82-11.98,11-10.96c13.82,1.02,31.99,25.7,29.04,36.96
			C348.2-81.67,331.39-105.43,313.83-119.18z"/>
		<path class="st10" d="M321.38-122.01c0,0-2.97-4.58,2.4-3.6s34.06,29.73,24.01,30.68C337.75-93.99,321.61-117.38,321.38-122.01z"
			/>
		<path class="st6" d="M354.18-95.54c0,0,74.34-32.99,126.93-30.63c1.26-1.52,0.62-26.24-5.53-43.68
			c-3.2-1.11-97.83,23.82-145.06,44.77C338.08-120.28,345.26-115.18,354.18-95.54z"/>
		<path class="st10" d="M340.73-122.5c0,0,73.07-30.82,130.32-38.76c1.15,3.27,4.28,12.55,3.91,29.47
			c-1.42-0.15-44.14-2.16-122.32,28.51C351.87-105.14,347.92-115.29,340.73-122.5z"/>
	</g>
</g>
<g id="Layer_19" class="st0">
	<path class="st11" d="M127.97,191.95c0,0,80.56,45.25,125.32,74.97c35.81,2.66,93.2-22.18,93.2-22.18s-103.21-39.92-120.06-52.79
		C202.21,192.39,127.97,191.95,127.97,191.95z"/>
	<path class="st11" d="M141.66,290.87c0,0,43.3,43.95,107.26,70.56c22.36,3.11,82.3-10.23,84.93-15.56
		c-5.79-1.77-77.32-27.24-101.63-51.01C214.32,295.75,141.66,290.87,141.66,290.87z"/>
	<g id="Layer_17">
		<g class="st1">
			<path class="st12" d="M249.7,486.35c0,0,10.59-3,17.88-11.43C265.75,475.09,256.15,474.39,249.7,486.35z"/>
			<path class="st4" d="M294.37,9.96c0,0-73.75,332.4-85.87,365.21c8.38,19.56,59.27,99.75,59.27,99.75s-11.63,0.8-18.06,11.44
				c-10.55-15.31-61.43-95.5-65.29-108.93c-0.56-6.4,88.62-366.1,88.62-366.1S281.9,7.43,294.37,9.96z"/>
		</g>
	</g>
</g>
<g id="Layer_21" class="st0">
	<path class="st13" d="M504.26,451.91H19.66c-6.6,0-12-5.4-12-12V18.13c0-6.6,5.4-12,12-12h484.6c6.6,0,12,5.4,12,12v421.79
		C516.26,446.51,510.86,451.91,504.26,451.91z"/>
</g>
<g id="outline_1_">
	<path class="st14" d="M131.14,199.66c0,0-113.7-110.64-45.8-152.74c34.24-18.84,63.28,24.34,58.72,17.45s11.22-27.54,38.58-9.92
		s31.02,39,31.02,39s59.54-41.64,101.59,22.87c0,0,18.49,28.41,15.42,83.56c9.11,3.5,49.27,19.92,72.54-22.32
		c3.76-6.83,12.49-9.07,19.01-4.78l20.9,13.75c8.54,5.62,11.71,16.61,7.49,25.92c-6.13,13.52-16.29,29.98-25.5,33.68
		c-14.42,5.78-17.87,42.52-56.17,46.66c-19.43,0-16.26,32.05-2.56,32.05c12.43,0,92.95,0.27,128.6,0.39
		c9.37,0.03,16.94,7.63,16.94,17v33c0,9.39-7.62,17.01-17.01,17.01H27.85c-9.39,0-17-7.61-17-17v-30.25c0-9.42,7.65-17.04,17.08-17
		c38.24,0.18,127.77,0.56,132.21,0.11c9.21,0,8-20.17-0.08-20.17C117.08,307.91,103.4,222.64,131.14,199.66z"/>
</g>
<g id="border">
	<g>
		<path class="st15" d="M196.33,152.87c0,0,21.34-41.4-19-78.3c0.25-2.26,1.22-7.29-6.02-11.89s-13.69,0.28-12.93,3.8
			c0.76,3.52,1.4,8.5,1.48,11.07c2.02,2.84,6.82,6.71,13.62,2.47c4.31,3.73,34.54,28.11,16.83,70.96
			C190.6,151.99,196.33,152.87,196.33,152.87z"/>
		<path class="st15" d="M155.96,195.18c0,0-33.38,32.48-6.83,80.28c-0.96,2.07-3.47,6.53,1.93,13.19c5.4,6.66,13.07,4.08,13.47,0.5
			c0.4-3.58,1.37-8.5,2.11-10.97c-1.02-3.33-4.34-8.53-12.13-6.66c-2.9-4.91-23.83-37.62,6.56-72.63
			C161.11,197.84,155.96,195.18,155.96,195.18z"/>
		<path class="st16" d="M233.92,181.41c0,0-57.14-47.46-101.43-100.39c-10.52-11.51-20.16-23.04-39.57-12.51s8.27,62.11,18.2,75.33
			s25.19,34.25,60.7,63.65s35.51,29.41,35.51,29.41L233.92,181.41z"/>
		<path class="st17" d="M92.08,68.44c0,0,22.47,87.48,121.58,132.66c0.02,0.48-18.23,19.44-18.23,19.44S104,155.96,86.59,92.97
			C80.98,73.84,92.08,68.44,92.08,68.44"/>
		<path class="st17" d="M105.45,64.31l-4.6,0.64c0,0,30.44,62.64,109.23,111.25c0.11-7.86,0.11-7.86,0.11-7.86
			S135.6,115.16,105.45,64.31"/>
		<path class="st15" d="M165.2,128.82c0,0-12.79-9.45-7.15,6.23c0.47,1.59,1.53,3.22-1.55,1.35c-3.09-1.87-6.66-9.32-2.4-13.22
			c4.26-3.89,13.51,0.44,14.02,4.37C168.38,130.79,165.2,128.82,165.2,128.82z"/>
		<path class="st15" d="M134.25,158.25c0,0-9.75-13.1,6.76-8.12c2.96,0.92,4.32,0.9,2.38-2.26c-2.3-3.26-10.99-6.16-15.21-1.3
			c-4.22,4.85,1.11,15.58,5.26,15.85C138.5,162.23,134.25,158.25,134.25,158.25z"/>
		<path class="st15" d="M145.41,116c0,0-1.29,1.06-1.32-0.7c-0.03-1.76-0.21-3.49,2.93-6.6c3.13-3.12,5.35-1.99,5.29-1.36
			c-0.06,0.63,0.07,1.19-2.1,3.26C148.04,112.68,146.22,115.42,145.41,116z"/>
		<path class="st15" d="M122.74,137.1c0,0,1.08-1.28-0.68-1.33c-1.76-0.05-3.49-0.25-6.64,2.85s-2.05,5.33-1.42,5.27
			c0.63-0.05,1.19,0.08,3.29-2.06C119.38,139.69,122.14,137.91,122.74,137.1z"/>
		<path class="st18" d="M171.04,153.84c0,0,2.52-9.09,9.94-7.55c6.06,1.26,11.18,7.06,6.85,17.44c-0.97,2.33-2.41,4.88-4.43,7.67
			c-11,15.21-28.98,12.08-32.76,5.51c-3.78-6.57,0.87-12.73,4.99-13.97c4.12-1.25,7.55-0.53,10.23-2.46
			C170.55,157.51,171.04,153.84,171.04,153.84z"/>
		<path class="st19" d="M187.83,163.73c0,0-8.78-4.67-16.89,2.94c-8.11,7.61-7.7,15.68-7.7,15.68S178.37,183.44,187.83,163.73z"/>
		<path class="st20" d="M178.19,146.21c0,0-4.97,25.46-27.97,21.64c0,0,1.53-5.05,8.91-5.62c5.74-0.66,9.95-2.13,11.92-8.39
			C173.65,147.09,178.19,146.21,178.19,146.21z"/>
		<path class="st21" d="M417.45,190c0,0,14.17,8.49,17.4,9.17c1.64,0.37,2.41,3.55,1.03,5.77c-1.38,2.22-10.71,10.8-13.42,18.8
			c-0.82,2.63-2.7,2.38-3.99,1.76s-12.08,4.13-17.39,11.92c-5.31,7.78-2.92,18.47-21.58,30.24c-18.66,11.78-47.9,15.97-64.13,14.96
			s-73.28-12.2-126.79-52.8c1.05,6.37,1.89,21.21,25.95,36.76s54.77,15.53,54.95,17.58c0.19,2.05-2.79,14.96-27.91,19.26
			c-29.81,5.06-83.32-20.3-87.81-47.23c-4.42-26.52-3.03-41.85,11.92-54.29c6.58-5.89,13.2-14.2,40.99-18.59
			c-0.81-0.88-13.48-23.5,0.81-45.31c14.29-21.81,27.14-39.43,57.92-33.28s43.6,39.42,43.36,61.91
			c-0.37,11.25,4.76,31.64,0.36,37.82c-4.4,6.18-7.92-2.04-8.13-4.82c-0.21-2.77-1.93-41.4-26.48-60.92
			c-12.03-9.65-31.27-14.11-55.33,1.04c-0.82,8.37-1.6,21.69,27.17,40.95s59.66,40.12,107.54,47.93
			c14.95,2.54,19.48,4.45,35.23-5.84C400.97,215.18,417.45,190,417.45,190z"/>
		<path class="st22" d="M211.49,183.61l-5.24-0.07c0,0-31.75,20.03-21.61,55s54.14,47.51,83.39,50.12c0.38-0.82,0.94-2.17,1.47-4.48
			c-0.55-0.76-2.44-0.78-3.95-0.97c-8.45-1.61-69.28-8.62-77.49-53.8C186.93,219.61,184.85,209.84,211.49,183.61z"/>
		<g>
			<path class="st23" d="M417.18,212.89c-3.86,2.92-7.62,5.99-11.2,9.24c-1.78,1.63-3.51,3.33-5.1,5.15
				c-0.41,0.44-0.78,0.92-1.15,1.39c-0.39,0.46-0.71,0.96-1.05,1.46c-0.66,1-1.24,2.07-1.87,3.1c-2.5,4.16-5.36,8.13-8.67,11.7
				c-3.3,3.58-7.04,6.75-11.1,9.44c-8.11,5.46-17.6,8.59-27.2,10.07c-9.62,1.47-19.42,1.56-29.1,0.68
				c-9.68-0.89-19.25-2.81-28.61-5.36c-1.17-0.32-2.35-0.6-3.51-0.96l-3.48-1.08c-2.32-0.73-4.65-1.41-6.92-2.26
				c-2.28-0.82-4.58-1.61-6.85-2.46l-6.75-2.72c-17.92-7.45-34.96-16.84-51.34-27.18l6.25,3.7c2.09,1.22,4.15,2.5,6.28,3.64
				c4.24,2.34,8.45,4.74,12.78,6.89c8.56,4.53,17.38,8.54,26.31,12.23c8.95,3.68,18.12,6.78,27.45,9.32
				c9.33,2.51,18.84,4.38,28.46,5.24c9.61,0.9,19.33,0.84,28.87-0.59c9.51-1.43,18.84-4.53,26.91-9.82
				c4.03-2.62,7.76-5.72,11.06-9.23c3.31-3.51,6.18-7.41,8.71-11.52c0.65-1.02,1.25-2.07,1.93-3.08c0.35-0.5,0.69-1.01,1.09-1.47
				c0.38-0.48,0.77-0.95,1.19-1.39c1.63-1.8,3.39-3.48,5.21-5.08C409.46,218.75,413.26,215.75,417.18,212.89z"/>
		</g>
		<path class="st24" d="M409.22,200.9c0,0,8.38,5.05,8.43,10.49c0.05,5.44-1.22,10.74,0.33,14.07c1.6,0.8,3.87,1.3,4.71-2.38
			c1.57-3.92,12.81-15.59,13.32-18.39c1.07-1.7,0.48-3.76-0.19-4.85c-0.53-0.86-1.13-0.69-4.72-2.3
			c-5.04-2.62-13.08-8.53-14.36-6.91C415.47,192.24,409.22,200.9,409.22,200.9z"/>
		<path class="st25" d="M211.28,183.41l-4.95,0.28c0,0-13.66-26.64,1.62-43.93s59.85-33.58,81.84,7.9
			c16.61,31.74,15.78,58.84,15.78,58.84s-3.22,1.43-3.57-5.69c-0.35-7.12-11.47-101.89-83.78-61.02
			C212.54,143.36,199.53,159.98,211.28,183.41z"/>
		<path class="st26" d="M152.93,256.13c-4.75-24.84-0.46-41.56,12.21-53.73c-30.53-26.31-45.61-46.32-54.85-58.63
			c-9.93-13.22-37.61-64.79-18.2-75.33s29.05,1,39.57,12.51c23.05,27.56,48.97,53.05,69.12,71.72c6.39-21.38,32.68-56.38,63.8-48.01
			c30.78,6.15,43.6,39.42,43.36,61.91c-0.37,11.25,4.76,31.64,0.36,37.82c-4.4,6.18-7.92-2.04-8.13-4.82
			c-0.21-2.77-1.93-41.4-26.48-60.92c-12.03-9.65-31.27-14.11-55.33,1.04c-2.57,20.2,23.36,40.83,54.17,57.96
			c26.94,14.97,57.36,27.55,79.21,31.07c12.23,1.87,23.27,3.91,33.46-3.45c15.14-8.63,25.58-26.28,31.42-35.35
			c0,0,14.17,8.49,17.4,9.17c1.64,0.37,2.41,3.55,1.03,5.77c-1.38,2.22-10.71,10.8-13.42,18.8c-0.82,2.63-2.7,2.38-3.99,1.76
			s-12.08,4.13-17.39,11.92c-5.36,21.86-20.54,32.76-39.91,38.99c-50.29,17.98-119.45-7.11-172.58-46.58
			c9.46,44.18,62.69,51.74,81.76,54.42C257.05,326.47,156.94,292.11,152.93,256.13z"/>
	</g>
</g>
<g id="Layer_11">
</g>
<g id="Layer_15">
	<g>
		<path class="st27" d="M20.08,348.08c-0.63,0-1.17-0.2-1.62-0.61c-0.45-0.41-0.67-0.94-0.67-1.6c0-0.63,0.23-1.14,0.67-1.53
			c0.45-0.39,0.99-0.58,1.62-0.58h20.48c0.63,0,1.16,0.2,1.6,0.61c0.43,0.41,0.65,0.92,0.65,1.55c0,0.66-0.22,1.19-0.65,1.58
			c-0.44,0.39-0.97,0.58-1.6,0.58H20.08z M30.3,375.26c-0.72,0-1.3-0.22-1.73-0.65c-0.44-0.43-0.65-0.98-0.65-1.64v-26.96h4.81
			v26.96c0,0.66-0.23,1.21-0.7,1.64C31.57,375.05,30.99,375.26,30.3,375.26z"/>
		<path class="st27" d="M50.32,343.76c0.6,0,1.13,0.22,1.6,0.65c0.46,0.44,0.7,0.98,0.7,1.64v26.91c-0.03,0.66-0.28,1.21-0.74,1.64
			c-0.47,0.44-1.01,0.65-1.64,0.65c-0.69,0-1.25-0.22-1.69-0.65c-0.44-0.43-0.65-0.98-0.65-1.64v-26.91c0-0.66,0.23-1.21,0.67-1.64
			C49.02,343.98,49.6,343.76,50.32,343.76z M50.14,357.17h20.52l-0.04,4.32H50.1L50.14,357.17z M70.62,343.76
			c0.72,0,1.29,0.22,1.71,0.65c0.42,0.44,0.63,0.98,0.63,1.64v26.91c0,0.66-0.22,1.21-0.65,1.64c-0.44,0.44-1.01,0.65-1.73,0.65
			c-0.63,0-1.17-0.22-1.62-0.65c-0.45-0.43-0.68-0.98-0.68-1.64v-26.91c0-0.66,0.23-1.21,0.7-1.64
			C69.44,343.98,69.99,343.76,70.62,343.76z"/>
		<path class="st27" d="M82.54,343.76h15.57c0.63,0,1.16,0.21,1.6,0.63c0.43,0.42,0.65,0.95,0.65,1.58s-0.22,1.14-0.65,1.53
			c-0.44,0.39-0.97,0.58-1.6,0.58H84.52l0.45-0.77v10.08l-0.41-0.45h11.52c0.63,0,1.16,0.21,1.6,0.63c0.43,0.42,0.65,0.96,0.65,1.62
			c0,0.63-0.22,1.14-0.65,1.53c-0.44,0.39-0.97,0.58-1.6,0.58H84.66l0.31-0.41v10.4l-0.31-0.36h13.45c0.63,0,1.16,0.22,1.6,0.65
			c0.43,0.44,0.65,0.94,0.65,1.51c0,0.63-0.22,1.15-0.65,1.55c-0.44,0.41-0.97,0.61-1.6,0.61H82.54c-0.63,0-1.17-0.22-1.62-0.65
			c-0.45-0.43-0.67-0.98-0.67-1.64v-26.91c0-0.66,0.23-1.21,0.67-1.64C81.37,343.98,81.91,343.76,82.54,343.76z"/>
		<path class="st27" d="M118.5,348.08c-0.63,0-1.17-0.2-1.62-0.61c-0.45-0.41-0.67-0.94-0.67-1.6c0-0.63,0.23-1.14,0.67-1.53
			c0.45-0.39,0.99-0.58,1.62-0.58h20.48c0.63,0,1.16,0.2,1.6,0.61c0.43,0.41,0.65,0.92,0.65,1.55c0,0.66-0.22,1.19-0.65,1.58
			c-0.44,0.39-0.97,0.58-1.6,0.58H118.5z M128.71,375.26c-0.72,0-1.3-0.22-1.73-0.65c-0.44-0.43-0.65-0.98-0.65-1.64v-26.96h4.81
			v26.96c0,0.66-0.23,1.21-0.7,1.64C129.98,375.05,129.4,375.26,128.71,375.26z"/>
		<path class="st27" d="M182.53,343.63c0.6,0,1.15,0.22,1.67,0.65c0.51,0.44,0.76,1.03,0.76,1.78c0,0.21-0.04,0.47-0.13,0.76
			l-9.22,27c-0.15,0.45-0.42,0.8-0.81,1.04c-0.39,0.24-0.79,0.38-1.21,0.41c-0.42,0-0.84-0.12-1.26-0.36
			c-0.42-0.24-0.74-0.6-0.95-1.08l-7.11-16.65l0.41,0.18l-7.02,16.47c-0.24,0.48-0.56,0.84-0.97,1.08c-0.4,0.24-0.83,0.36-1.28,0.36
			c-0.39-0.03-0.78-0.16-1.17-0.41c-0.39-0.24-0.66-0.58-0.81-1.04l-9.23-27c-0.09-0.3-0.14-0.55-0.14-0.76
			c0-0.75,0.27-1.34,0.81-1.78c0.54-0.43,1.09-0.65,1.67-0.65c0.48,0,0.92,0.13,1.33,0.38c0.4,0.26,0.68,0.62,0.83,1.1l7.79,23.22
			h-0.81l6.84-16.74c0.21-0.45,0.5-0.81,0.88-1.08c0.38-0.27,0.8-0.39,1.28-0.36c0.48-0.03,0.91,0.09,1.28,0.36
			c0.38,0.27,0.65,0.63,0.83,1.08l6.48,16.25l-0.68,0.36l7.74-23.08c0.15-0.48,0.43-0.85,0.86-1.1
			C181.6,343.76,182.05,343.63,182.53,343.63z"/>
		<path class="st27" d="M194.28,372.97c-0.03,0.66-0.28,1.21-0.74,1.64c-0.47,0.44-1.01,0.65-1.64,0.65c-0.69,0-1.25-0.22-1.69-0.65
			c-0.44-0.43-0.65-0.98-0.65-1.64v-26.91c0-0.66,0.23-1.21,0.68-1.64c0.45-0.43,1.04-0.65,1.75-0.65c0.6,0,1.13,0.22,1.6,0.65
			c0.46,0.44,0.7,0.98,0.7,1.64V372.97z"/>
		<path class="st27" d="M211.24,375.71c-2.16,0-4.08-0.3-5.76-0.9c-1.68-0.6-3.28-1.59-4.81-2.97c-0.33-0.24-0.58-0.53-0.74-0.88
			c-0.17-0.34-0.25-0.7-0.25-1.06c0-0.57,0.21-1.08,0.63-1.53s0.95-0.67,1.58-0.67c0.48,0,0.93,0.17,1.35,0.49
			c1.14,1.05,2.33,1.85,3.58,2.39c1.24,0.54,2.71,0.81,4.39,0.81c1.2,0,2.3-0.19,3.31-0.58c1-0.39,1.81-0.92,2.41-1.58
			c0.6-0.66,0.9-1.42,0.9-2.29c0-1.08-0.31-1.97-0.92-2.68c-0.62-0.7-1.5-1.29-2.66-1.75c-1.16-0.46-2.54-0.86-4.16-1.19
			c-1.5-0.27-2.84-0.64-4.03-1.13c-1.18-0.48-2.2-1.09-3.04-1.82c-0.84-0.73-1.49-1.61-1.93-2.63c-0.45-1.02-0.68-2.21-0.68-3.55
			c0-1.83,0.48-3.4,1.44-4.72c0.96-1.32,2.26-2.34,3.92-3.06c1.65-0.72,3.51-1.08,5.58-1.08c1.89,0,3.66,0.29,5.31,0.88
			c1.65,0.58,2.99,1.37,4,2.36c0.72,0.63,1.08,1.3,1.08,2.03c0,0.54-0.22,1.04-0.65,1.51c-0.44,0.47-0.94,0.7-1.51,0.7
			c-0.42,0-0.78-0.12-1.08-0.36c-0.48-0.51-1.13-0.97-1.94-1.37c-0.81-0.4-1.67-0.74-2.59-1.01c-0.92-0.27-1.79-0.41-2.63-0.41
			c-1.35,0-2.51,0.19-3.46,0.56c-0.96,0.38-1.7,0.88-2.21,1.53c-0.51,0.65-0.77,1.4-0.77,2.27c0,1.02,0.29,1.86,0.88,2.52
			c0.58,0.66,1.4,1.19,2.45,1.6s2.25,0.77,3.6,1.1c1.65,0.36,3.13,0.76,4.43,1.21c1.3,0.45,2.41,1.03,3.31,1.73
			c0.9,0.71,1.59,1.58,2.07,2.63c0.48,1.05,0.72,2.36,0.72,3.92c0,1.8-0.51,3.38-1.53,4.72c-1.02,1.35-2.36,2.4-4.03,3.15
			C215.13,375.34,213.28,375.71,211.24,375.71z"/>
		<path class="st27" d="M227.94,348.08c-0.63,0-1.17-0.2-1.62-0.61c-0.45-0.41-0.68-0.94-0.68-1.6c0-0.63,0.23-1.14,0.68-1.53
			c0.45-0.39,0.99-0.58,1.62-0.58h20.47c0.63,0,1.16,0.2,1.6,0.61c0.43,0.41,0.65,0.92,0.65,1.55c0,0.66-0.22,1.19-0.65,1.58
			c-0.44,0.39-0.97,0.58-1.6,0.58H227.94z M238.15,375.26c-0.72,0-1.3-0.22-1.73-0.65c-0.44-0.43-0.65-0.98-0.65-1.64v-26.96h4.82
			v26.96c0,0.66-0.23,1.21-0.7,1.64C239.42,375.05,238.84,375.26,238.15,375.26z"/>
		<path class="st27" d="M258.04,343.76h15.57c0.63,0,1.16,0.21,1.6,0.63c0.43,0.42,0.65,0.95,0.65,1.58s-0.22,1.14-0.65,1.53
			c-0.44,0.39-0.97,0.58-1.6,0.58h-13.59l0.45-0.77v10.08l-0.41-0.45h11.52c0.63,0,1.16,0.21,1.6,0.63s0.65,0.96,0.65,1.62
			c0,0.63-0.22,1.14-0.65,1.53c-0.43,0.39-0.97,0.58-1.6,0.58h-11.43l0.32-0.41v10.4l-0.32-0.36h13.46c0.63,0,1.16,0.22,1.6,0.65
			c0.43,0.44,0.65,0.94,0.65,1.51c0,0.63-0.22,1.15-0.65,1.55c-0.44,0.41-0.97,0.61-1.6,0.61h-15.57c-0.63,0-1.17-0.22-1.62-0.65
			c-0.45-0.43-0.68-0.98-0.68-1.64v-26.91c0-0.66,0.23-1.21,0.68-1.64C256.87,343.98,257.41,343.76,258.04,343.76z"/>
		<path class="st27" d="M294.72,343.76c2.19,0,4.13,0.41,5.8,1.24c1.68,0.83,3.08,1.97,4.21,3.42c1.13,1.46,1.97,3.14,2.54,5.04
			c0.57,1.91,0.86,3.92,0.86,6.05c0,2.91-0.51,5.56-1.53,7.94c-1.02,2.38-2.52,4.28-4.5,5.69c-1.98,1.41-4.44,2.12-7.38,2.12h-10.98
			c-0.63,0-1.17-0.22-1.62-0.65c-0.45-0.43-0.68-0.98-0.68-1.64v-26.91c0-0.66,0.23-1.21,0.68-1.64c0.45-0.43,0.99-0.65,1.62-0.65
			H294.72z M294.27,370.94c2.13,0,3.85-0.52,5.17-1.57s2.29-2.44,2.9-4.16c0.61-1.72,0.92-3.62,0.92-5.69
			c0-1.53-0.17-2.98-0.52-4.34c-0.34-1.36-0.88-2.58-1.62-3.64c-0.74-1.06-1.66-1.91-2.79-2.52c-1.13-0.61-2.48-0.92-4.07-0.92h-8.5
			l0.41-0.41v23.71l-0.27-0.45H294.27z"/>
		<path class="st27" d="M339.99,343.76c2.76,0,4.85,0.67,6.28,2.03c1.42,1.35,2.14,3.31,2.14,5.89c0,1.35-0.32,2.57-0.97,3.67
			s-1.59,1.96-2.83,2.59s-2.8,0.96-4.66,0.99l0.09-1.67c0.99,0,2.06,0.13,3.22,0.41c1.15,0.27,2.24,0.74,3.26,1.39
			c1.02,0.66,1.86,1.55,2.52,2.68c0.66,1.13,0.99,2.53,0.99,4.21c0,1.83-0.3,3.35-0.9,4.57c-0.6,1.21-1.39,2.17-2.38,2.86
			s-2.08,1.18-3.26,1.46c-1.19,0.29-2.35,0.43-3.49,0.43h-11.52c-0.63,0-1.17-0.22-1.62-0.65c-0.45-0.43-0.68-0.98-0.68-1.64v-26.91
			c0-0.66,0.23-1.21,0.68-1.64c0.45-0.43,0.99-0.65,1.62-0.65H339.99z M339.36,348.17h-8.87l0.54-0.72v9.67l-0.5-0.5h8.91
			c1.08-0.03,2.03-0.4,2.86-1.1s1.24-1.75,1.24-3.13c0-1.41-0.38-2.47-1.13-3.17S340.64,348.17,339.36,348.17z M339.67,361.04h-8.95
			l0.31-0.32v10.62l-0.36-0.41h9.27c1.56,0,2.82-0.41,3.78-1.24c0.96-0.82,1.44-2.08,1.44-3.76c0-1.41-0.29-2.46-0.85-3.15
			c-0.57-0.69-1.28-1.15-2.12-1.4C341.35,361.16,340.51,361.04,339.67,361.04z"/>
		<path class="st27" d="M366.85,349.61l-10.13,24.3c-0.18,0.48-0.45,0.85-0.81,1.13c-0.36,0.27-0.76,0.4-1.21,0.4
			c-0.66,0-1.16-0.19-1.49-0.56c-0.33-0.37-0.51-0.85-0.54-1.42c0-0.21,0.04-0.45,0.14-0.72l11.43-27.63
			c0.21-0.51,0.52-0.9,0.92-1.17c0.41-0.27,0.85-0.39,1.33-0.36c0.45,0,0.87,0.13,1.26,0.4c0.39,0.27,0.67,0.65,0.86,1.13
			l11.29,27.23c0.12,0.3,0.18,0.6,0.18,0.9c0,0.66-0.22,1.19-0.65,1.6c-0.44,0.41-0.92,0.61-1.46,0.61c-0.45,0-0.86-0.14-1.24-0.43
			c-0.38-0.29-0.65-0.65-0.83-1.1l-10.22-24.17L366.85,349.61z M358.53,367.52l2.02-4.32h12.74l0.76,4.32H358.53z"/>
		<path class="st27" d="M408.11,343.76c0.6,0,1.09,0.2,1.46,0.61s0.56,0.91,0.56,1.51v27.09c0,0.66-0.22,1.21-0.65,1.64
			c-0.44,0.44-0.98,0.65-1.64,0.65c-0.3,0-0.62-0.06-0.97-0.18s-0.61-0.29-0.79-0.5l-18.5-23.99l1.04-0.58v23.17
			c0,0.57-0.2,1.06-0.58,1.46c-0.39,0.41-0.89,0.61-1.49,0.61c-0.63,0-1.13-0.2-1.51-0.61s-0.56-0.89-0.56-1.46v-27.13
			c0-0.69,0.23-1.24,0.68-1.67c0.45-0.42,0.99-0.63,1.62-0.63c0.33,0,0.68,0.07,1.06,0.2c0.38,0.14,0.65,0.34,0.83,0.61l18.04,23.49
			l-0.67,0.63v-22.81c0-0.6,0.19-1.1,0.58-1.51C407.02,343.96,407.51,343.76,408.11,343.76z"/>
		<path class="st27" d="M428.72,349.61l-10.13,24.3c-0.18,0.48-0.45,0.85-0.81,1.13c-0.36,0.27-0.76,0.4-1.21,0.4
			c-0.66,0-1.16-0.19-1.49-0.56c-0.33-0.37-0.51-0.85-0.54-1.42c0-0.21,0.04-0.45,0.14-0.72l11.43-27.63
			c0.21-0.51,0.52-0.9,0.92-1.17c0.41-0.27,0.85-0.39,1.33-0.36c0.45,0,0.87,0.13,1.26,0.4c0.39,0.27,0.67,0.65,0.86,1.13
			l11.29,27.23c0.12,0.3,0.18,0.6,0.18,0.9c0,0.66-0.22,1.19-0.65,1.6c-0.44,0.41-0.92,0.61-1.46,0.61c-0.45,0-0.86-0.14-1.24-0.43
			c-0.38-0.29-0.65-0.65-0.83-1.1l-10.22-24.17L428.72,349.61z M420.4,367.52l2.02-4.32h12.74l0.76,4.32H420.4z"/>
		<path class="st27" d="M469.99,343.76c0.6,0,1.09,0.2,1.46,0.61s0.56,0.91,0.56,1.51v27.09c0,0.66-0.22,1.21-0.65,1.64
			c-0.44,0.44-0.98,0.65-1.64,0.65c-0.3,0-0.62-0.06-0.97-0.18s-0.61-0.29-0.79-0.5l-18.5-23.99l1.04-0.58v23.17
			c0,0.57-0.2,1.06-0.58,1.46c-0.39,0.41-0.89,0.61-1.49,0.61c-0.63,0-1.13-0.2-1.51-0.61s-0.56-0.89-0.56-1.46v-27.13
			c0-0.69,0.23-1.24,0.68-1.67c0.45-0.42,0.99-0.63,1.62-0.63c0.33,0,0.68,0.07,1.06,0.2c0.38,0.14,0.65,0.34,0.83,0.61l18.04,23.49
			l-0.67,0.63v-22.81c0-0.6,0.19-1.1,0.58-1.51C468.89,343.96,469.39,343.76,469.99,343.76z"/>
		<path class="st27" d="M490.6,349.61l-10.13,24.3c-0.18,0.48-0.45,0.85-0.81,1.13c-0.36,0.27-0.76,0.4-1.21,0.4
			c-0.66,0-1.16-0.19-1.49-0.56c-0.33-0.37-0.51-0.85-0.54-1.42c0-0.21,0.04-0.45,0.14-0.72l11.43-27.63
			c0.21-0.51,0.52-0.9,0.92-1.17c0.41-0.27,0.85-0.39,1.33-0.36c0.45,0,0.87,0.13,1.26,0.4c0.39,0.27,0.67,0.65,0.86,1.13
			l11.29,27.23c0.12,0.3,0.18,0.6,0.18,0.9c0,0.66-0.22,1.19-0.65,1.6c-0.44,0.41-0.92,0.61-1.46,0.61c-0.45,0-0.86-0.14-1.24-0.43
			c-0.38-0.29-0.65-0.65-0.83-1.1l-10.22-24.17L490.6,349.61z M482.27,367.52l2.02-4.32h12.74l0.76,4.32H482.27z"/>
	</g>
</g>
<g id="Layer_18" class="st0">
	<path class="st9" d="M147.28,344.54c0,0,77.05,38.59,187.1,0c-0.53,14.64-4.21,53.23-4.21,53.23s-83.2,40.81-176.92,0
		C150.61,374.27,147.28,344.54,147.28,344.54z"/>
	<path class="st9" d="M141.66,291.76c0,0,87.94,36.38,201.15,0c0-10.65,4.21-49.68,4.21-49.68s-126.36,26.3-211.67-1.21
		C135.88,256.84,141.66,291.76,141.66,291.76z"/>
	<path class="st9" d="M129.02,192.39c0,0,121.63,15.53,225.89,0c2.11-18.19,6.32-47.02,6.32-47.02s-120.58,10.65-236.95,0
		C126.39,177.31,129.02,192.39,129.02,192.39z"/>
</g>
<g id="Layer_20" class="st0">
	<path class="st28" d="M361.23,145.37c0,0-14.22,72.93-31.07,252.41c-10.37,4.28-85.66,40.07-176.92,0
		c-2.25-22.54-28.96-252.41-28.96-252.41S246.87,157.46,361.23,145.37z"/>
</g>
</svg>
